<?xml version="1.0" standalone="no"?>
<!DOCTYPE svg PUBLIC "-//W3C//DTD SVG 1.1//EN" "http://www.w3.org/Graphics/SVG/1.1/DTD/svg11.dtd">
<svg xmlns="http://www.w3.org/2000/svg" width="652" height="134" viewBox="0 0 652 134" fill="none">
<path d="M63.6552 49.0209C69.7844 53.6263 74.7205 59.5128 77.5788 66.6933C77.5788 69.0564 77.5788 71.4194 77.5788 73.854C71.4817 73.854 65.3846 73.854 59.1028 73.854C58.6338 72.5248 58.1648 71.1956 57.6815 69.8262C54.4097 64.5716 52.4012 63.2431 46.6726 61.4571C40.9094 60.5714 36.023 61.5781 30.6782 63.8291C25.5205 67.6993 22.569 71.4309 21.1348 77.8428C19.7625 88.5841 18.951 99.3768 24.7379 108.908C27.4938 112.494 29.1911 113.901 33.5206 115.386C40.4952 116.128 46.8037 116.274 53.4179 113.775C56.9664 110.423 58.6438 106.984 60.524 102.497C54.8959 102.024 49.2679 101.552 43.4692 101.065C43.4692 95.8661 43.4692 90.6674 43.4692 85.3112C55.1944 85.3112 66.9195 85.3112 79 85.3112C79 100.435 79 115.558 79 131.14C74.7789 131.14 70.5579 131.14 66.2089 131.14C65.2709 128.777 64.3329 126.414 63.3665 123.979C61.7836 125.308 61.7836 125.308 60.1687 126.664C51.5444 133.38 42.6472 134.63 31.844 133.752C22.3855 131.858 13.9301 126.756 8.12725 119C-0.525651 104.857 -1.5829 88.4474 1.75392 72.2429C5.52363 61.8534 12.2751 52.7655 21.9731 47.3594C34.209 42.614 52.0605 42.6583 63.6552 49.0209Z" fill="#1f2937"/>
<path d="M141.002 70.7386C148.478 77.1344 153.157 83.896 154 93.78C154 97.5818 154 101.384 154 105.301C131.839 106.013 131.839 106.013 109.231 106.741C112.485 115.116 112.485 115.116 116.903 117.451C121.634 118.439 124.804 118.13 129.449 116.821C130.05 116.09 130.652 115.359 131.271 114.605C135.128 111.373 138.515 112.085 143.439 112.231C145.143 112.27 146.846 112.309 148.601 112.349C149.906 112.399 151.211 112.449 152.556 112.501C151.448 118.924 150.041 122.209 145.335 126.902C135.743 133.372 125.551 135.18 114.195 133.292C105.156 130.94 98.3405 125.971 93.4351 118.081C89.1639 106.557 88.6805 93.976 93.091 82.3661C97.0884 75.3342 103.353 70.7891 110.494 67.2284C120.941 65.3533 131.706 65 141.002 70.7386ZM113.653 83.1593C110.019 86.7632 110.019 86.7632 109.231 93.78C117.809 93.78 126.387 93.78 135.226 93.78C134.322 87.1438 134.322 87.1438 132.247 84.0594C125.944 80.004 119.992 79.6628 113.653 83.1593Z" fill="#1f2937"/>
<path d="M422.011 71.6226C426.564 75.1084 428.121 77.4138 429.146 82.9015C429.341 86.1 429.466 89.3029 429.547 92.5062C429.587 93.8823 429.587 93.8823 429.627 95.2863C429.739 99.1943 429.836 103.103 429.934 107.011C430.008 109.872 430.09 112.732 430.172 115.593C430.215 117.299 430.258 119.006 430.303 120.764C430.523 124.373 430.934 127.4 432 130.837C428.969 130.951 425.936 131.033 422.903 131.101C421.215 131.15 419.526 131.199 417.786 131.25C415.64 131.045 415.64 131.045 413.45 130.837C412.508 129.441 411.566 128.045 410.596 126.607C409.536 127.538 409.536 127.538 408.433 128.497C401.642 132.969 393.774 132.373 385.959 131.316C381.356 129.608 378.374 127.272 375.786 123.044C373.028 116.37 373.906 109.436 375.97 102.678C381.28 95.6288 387.302 93.7663 395.747 92.2799C401.034 91.5301 406.329 90.9491 411.644 90.4294C411.644 87.6379 411.644 84.8464 411.644 81.9703C409.594 81.8556 407.542 81.7738 405.49 81.7059C404.348 81.6569 403.206 81.6078 402.029 81.5572C398.065 82.0646 396.955 83.1439 394.521 86.1999C394.05 87.1304 393.579 88.0609 393.094 89.0196C387.443 89.0196 381.792 89.0196 375.97 89.0196C377.881 76.3686 377.881 76.3686 382.748 72.1894C395.389 64.2635 409.632 64.329 423.059 70.6914ZM401.566 103.647C400.313 104.007 399.061 104.367 397.77 104.738C394.299 105.767 394.299 105.767 391.667 108.758C391.191 112.282 391.191 112.282 391.667 115.807C394.413 119.106 394.413 119.106 399.247 119.156C405.464 118.531 407.606 117.682 411.644 112.987C412.649 109.133 412.868 105.723 413.071 101.709C408.744 101.709 405.692 102.434 401.566 103.647Z" fill="#1f2937"/>
<path d="M568.126 70.6958C575.608 76.7284 580.203 84.0023 581.756 93.4898C582.678 105.081 581.133 114.122 574.578 123.904C568.805 130.651 562.104 132.649 553.496 133.86C543.952 134.429 535.66 133.444 527.913 127.527C519.853 119.753 517.307 111.45 517 100.413C517.373 89.4194 519.745 80.7828 527.645 72.6748C538.855 64.8502 556.215 63.5394 568.126 70.6958ZM539.094 85.5183C534.747 92.5988 534.14 98.1879 535.332 106.383C536.868 112.178 538.661 114.53 543.388 118.341C547.473 119.468 550.75 119.46 554.837 118.341C559.445 114.724 561.57 112.471 563.425 106.924C564.002 100.389 564.235 94.5516 561.636 88.4616C558.034 84.2286 555.551 81.5661 549.918 80.702C545.201 81.3903 542.805 82.4998 539.094 85.5183Z" fill="#1f2937"/>
<path d="M281.626 69.0102C289.172 73.5137 293.92 81.6454 296.643 89.8C297.579 104.101 297.266 113.846 288.241 125.223C281.846 132.182 275.255 133.281 266.062 133.989C256.916 134.153 250.36 132.462 243.19 126.651C234.859 118.517 233.46 112.189 233 100.775C233.247 88.9399 236.005 80.376 244.441 71.9547C255.313 65.4437 269.741 63.9849 281.626 69.0102ZM253.738 86.9447C250.036 93.1027 250.065 99.9499 250.877 106.931C253.098 112.737 254.256 114.891 259.458 118.352C267.427 119.269 267.427 119.269 274.296 115.943C279.063 109.172 280.197 103.798 279.481 95.5105C277.691 89.87 276.411 86.511 271.794 82.7511C263.823 79.5305 259.799 80.8944 253.738 86.9447Z" fill="#1f2937"/>
<path d="M644.745 71.583C651.942 78.9358 652.063 85.1981 651.99 95.0801C651.988 96.1083 651.986 97.1365 651.984 98.1959C651.976 101.468 651.958 104.739 651.94 108.011C651.933 110.235 651.926 112.458 651.92 114.681C651.905 120.121 651.88 125.56 651.851 131C645.754 131 639.656 131 633.374 131C633.339 129.686 633.303 128.373 633.266 127.019C633.131 122.152 632.99 117.285 632.845 112.418C632.784 110.311 632.724 108.203 632.668 106.095C632.586 103.068 632.495 100.041 632.403 97.0143C632.351 95.1918 632.299 93.3693 632.245 91.4916C632.244 87.268 632.244 87.268 630.532 84.3152C626.228 83.173 623.134 82.5881 618.806 83.7847C615.427 86.4275 614.805 88.7446 613.477 92.8033C612.961 97.1764 612.961 97.1764 612.888 101.85C612.806 104.4 612.806 104.4 612.721 107.003C612.678 108.765 612.634 110.528 612.588 112.344C612.506 115.029 612.506 115.029 612.422 117.768C612.288 122.178 612.17 126.589 612.055 131C606.427 131 600.799 131 595 131C595 110.459 595 89.9174 595 68.7536C600.628 68.7536 606.256 68.7536 612.055 68.7536C612.524 70.1541 612.993 71.5547 613.477 72.9977C614.708 71.991 614.708 71.991 615.964 70.9641C624.987 64.7268 635.513 66.5551 644.745 71.583Z" fill="#1f2937"/>
<path d="M212.776 71.0952C216.255 73.7676 217.646 76.1305 219.56 80.0934C219.919 84.1474 220.06 87.8771 219.977 91.9196C219.971 93.0396 219.965 94.1595 219.959 95.3133C219.935 98.8723 219.881 102.43 219.827 105.989C219.805 108.409 219.786 110.829 219.768 113.25C219.721 119.167 219.648 125.083 219.56 131C213.918 131 208.277 131 202.464 131C202.451 129.694 202.438 128.389 202.424 127.043C202.361 122.196 202.274 117.351 202.169 112.504C202.129 110.407 202.098 108.31 202.078 106.213C202.048 103.196 201.981 100.183 201.908 97.1672C201.878 95.3529 201.848 93.5386 201.817 91.6694C201.461 87.0932 201.461 87.0932 198.409 84.4119C193.978 82.2594 191.428 82.8674 186.794 84.3356C182.042 89.0121 181.934 93.0431 181.791 99.5148C181.74 101.347 181.69 103.179 181.638 105.066C181.605 106.994 181.572 108.922 181.54 110.849C181.493 112.799 181.444 114.749 181.393 116.699C181.275 121.466 181.177 126.232 181.095 131C175.454 131 169.812 131 164 131C164 110.468 164 89.9353 164 68.7808C169.171 68.7808 174.343 68.7808 179.671 68.7808C180.141 70.6473 180.611 72.5139 181.095 74.4371C182.182 73.5329 183.27 72.6288 184.39 71.6973C193.539 64.7276 203.106 66.3642 212.776 71.0952Z" fill="#1f2937"/>
<path d="M304 68C310.51 68 317.02 68 323.727 68C324.407 70.4308 325.086 72.8616 325.786 75.366C326.685 78.5486 327.584 81.731 328.483 84.9134C328.93 86.5163 329.377 88.1193 329.837 89.7709C330.273 91.3075 330.709 92.844 331.158 94.4271C331.556 95.8443 331.955 97.2614 332.366 98.7215C333.515 102.644 333.515 102.644 336.409 106.659C340.129 93.9016 343.849 81.1441 347.682 68C353.727 68 359.772 68 366 68C364.415 77.6648 364.415 77.6648 362.62 82.5608C362.028 84.1938 362.028 84.1938 361.424 85.8598C360.999 87.0055 360.575 88.1513 360.138 89.3319C359.702 90.5274 359.266 91.7229 358.817 92.9546C357.432 96.7499 356.036 100.541 354.639 104.332C353.695 106.914 352.751 109.496 351.807 112.079C349.501 118.389 347.185 124.695 344.864 131C338.819 131 332.774 131 326.545 131C321.354 118.685 316.715 106.268 312.346 93.6367C311.291 90.5881 310.229 87.5422 309.166 84.4967C304 69.6459 304 69.6459 304 68Z" fill="#1f2937"/>
<path d="M447.8 53C452.882 53 457.964 53 463.2 53C463.2 58.6476 463.2 64.2952 463.2 70.1139C466.434 70.1139 469.668 70.1139 473 70.1139C473 73.879 473 77.644 473 81.5232C469.766 81.5232 466.532 81.5232 463.2 81.5232C463.662 93.7596 464.124 105.996 464.6 118.603C467.372 118.603 470.144 118.603 473 118.603C473 123.31 473 128.016 473 132.865C463.665 133.256 457.466 133.065 449.2 128.586C447.8 127.16 447.8 127.16 447.641 122.809C447.641 120.885 447.649 118.962 447.663 117.038C447.665 116.027 447.667 115.016 447.669 113.974C447.677 110.734 447.695 107.493 447.712 104.253C447.72 102.06 447.726 99.8682 447.732 97.6761C447.747 92.2917 447.771 86.9075 447.8 81.5232C444.566 81.5232 441.332 81.5232 438 81.5232C438 77.7581 438 73.993 438 70.1139C441.234 70.1139 444.468 70.1139 447.8 70.1139C447.8 64.4663 447.8 58.8187 447.8 53Z" fill="#1f2937"/>
<path d="M486 68C491.61 68 497.22 68 503 68C503 88.79 503 109.58 503 131C497.39 131 491.78 131 486 131C486 110.21 486 89.42 486 68Z" fill="#1f2937"/>
<path d="M528 31.5L486.75 58.7798L486.75 4.2202L528 31.5Z" fill="url(#paint0_linear_124_61)"/>
<path d="M557 31.5L515.75 58.7798L515.75 4.2202L557 31.5Z" fill="url(#paint1_linear_124_61)"/>
<defs>
<linearGradient id="paint0_linear_124_61" x1="488" y1="32" x2="528" y2="32" gradientUnits="userSpaceOnUse">
<stop stop-color="#47F447"/>
<stop offset="0.395" stop-color="#779BA8"/>
<stop offset="1" stop-color="#9761E8"/>
</linearGradient>
<linearGradient id="paint1_linear_124_61" x1="517" y1="32" x2="557" y2="32" gradientUnits="userSpaceOnUse">
<stop stop-color="#47F447"/>
<stop offset="0.395" stop-color="#779BA8"/>
<stop offset="1" stop-color="#9761E8"/>
</linearGradient>
</defs>
</svg>
